<?xml version="1.0" encoding="UTF-8" standalone="no"?>
<!DOCTYPE svg PUBLIC "-//W3C//DTD SVG 1.1//EN" "http://www.w3.org/Graphics/SVG/1.1/DTD/svg11.dtd">
<svg version="1.1" xmlns="http://www.w3.org/2000/svg" xmlns:xlink="http://www.w3.org/1999/xlink" preserveAspectRatio="xMidYMid meet" viewBox="0 0 640 640" width="640" height="640"><defs><path d="M108.11 0L203.84 0L203.84 71.11L108.11 71.11L108.11 0Z" id="i2v8UkZGmo"></path><path d="M37 71.11L108.11 71.11L108.11 635.9L37 635.9L37 71.11Z" id="hlY9EmcyI"></path><path d="M179.22 0L250.33 0L250.33 142.22L179.22 142.22L179.22 0Z" id="actyJohe3"></path><path d="M250.33 142.22L321.44 142.22L321.44 213.33L250.33 213.33L250.33 142.22Z" id="b1xuysp2aV"></path><path d="M321.44 213.33L419.91 213.33L419.91 284.44L321.44 284.44L321.44 213.33Z" id="hSloYjq0b"></path><path d="M392.56 71.11L463.67 71.11L463.67 355.56L392.56 355.56L392.56 71.11Z" id="c1qahUbjhr"></path><path d="M463.67 0L600.9 0L600.9 71.11L463.67 71.11L463.67 0Z" id="a1n5M7QXPY"></path><path d="M529.79 6.84L600.9 6.84L600.9 568.89L529.79 568.89L529.79 6.84Z" id="bV5yoh2u"></path><path d="M392.56 568.89L529.79 568.89L529.79 640L392.56 640L392.56 568.89Z" id="d1xmC08cOT"></path><path d="M37 568.89L174.23 568.89L174.23 640L37 640L37 568.89Z" id="b1chcxt2v"></path><path d="M174.23 284.44L245.35 284.44L245.35 568.89L174.23 568.89L174.23 284.44Z" id="d106cSCY7"></path><path d="M387.57 568.89L458.68 568.89L458.68 640L387.57 640L387.57 568.89Z" id="c4vXohFUyF"></path><path d="M387.57 497.78L458.68 497.78L458.68 607.18L387.57 607.18L387.57 497.78Z" id="fa6ReyHZW"></path><path d="M316.46 426.67L387.57 426.67L387.57 497.78L316.46 497.78L316.46 426.67Z" id="b2twynrdoC"></path><path d="M203.84 355.56L316.46 355.56L316.46 426.67L203.84 426.67L203.84 355.56Z" id="ekmAlP45K"></path></defs><g><g><g><use xlink:href="#i2v8UkZGmo" opacity="1" fill="#ffffff" fill-opacity="1"></use></g><g><use xlink:href="#hlY9EmcyI" opacity="1" fill="#ffffff" fill-opacity="1"></use></g><g><use xlink:href="#actyJohe3" opacity="1" fill="#ffffff" fill-opacity="1"></use></g><g><use xlink:href="#b1xuysp2aV" opacity="1" fill="#ffffff" fill-opacity="1"></use></g><g><use xlink:href="#hSloYjq0b" opacity="1" fill="#ffffff" fill-opacity="1"></use></g><g><use xlink:href="#c1qahUbjhr" opacity="1" fill="#ffffff" fill-opacity="1"></use></g><g><use xlink:href="#a1n5M7QXPY" opacity="1" fill="#ffffff" fill-opacity="1"></use></g><g><use xlink:href="#bV5yoh2u" opacity="1" fill="#ffffff" fill-opacity="1"></use></g><g><use xlink:href="#d1xmC08cOT" opacity="1" fill="#ffffff" fill-opacity="1"></use></g><g><use xlink:href="#b1chcxt2v" opacity="1" fill="#ffffff" fill-opacity="1"></use></g><g><use xlink:href="#d106cSCY7" opacity="1" fill="#ffffff" fill-opacity="1"></use></g><g><use xlink:href="#c4vXohFUyF" opacity="1" fill="#ffffff" fill-opacity="1"></use></g><g><use xlink:href="#fa6ReyHZW" opacity="1" fill="#ffffff" fill-opacity="1"></use></g><g><use xlink:href="#b2twynrdoC" opacity="1" fill="#ffffff" fill-opacity="1"></use></g><g><use xlink:href="#ekmAlP45K" opacity="1" fill="#ffffff" fill-opacity="1"></use></g></g></g></svg>