<?xml version="1.0" encoding="UTF-8" standalone="no"?>
<!DOCTYPE svg PUBLIC "-//W3C//DTD SVG 1.1//EN" "http://www.w3.org/Graphics/SVG/1.1/DTD/svg11.dtd">
<svg version="1.1" xmlns="http://www.w3.org/2000/svg" xmlns:xlink="http://www.w3.org/1999/xlink" preserveAspectRatio="xMidYMid meet" viewBox="0 0 640 640" width="640" height="640"><defs><path d="M108.11 0L203.84 0L203.84 71.11L108.11 71.11L108.11 0Z" id="a1bFCLH4Vb"></path><path d="M37 71.11L108.11 71.11L108.11 635.9L37 635.9L37 71.11Z" id="dorHDMz2s"></path><path d="M179.22 0L250.33 0L250.33 142.22L179.22 142.22L179.22 0Z" id="a7fAK8CKB7"></path><path d="M250.33 142.22L321.44 142.22L321.44 213.33L250.33 213.33L250.33 142.22Z" id="a1IkysWcE"></path><path d="M321.44 213.33L419.91 213.33L419.91 284.44L321.44 284.44L321.44 213.33Z" id="b6yG3mRGd"></path><path d="M392.56 71.11L463.67 71.11L463.67 355.56L392.56 355.56L392.56 71.11Z" id="c2HnEcTeKF"></path><path d="M463.67 0L600.9 0L600.9 71.11L463.67 71.11L463.67 0Z" id="bec6FvFrC"></path><path d="M529.79 6.84L600.9 6.84L600.9 568.89L529.79 568.89L529.79 6.84Z" id="bpYH7zhde"></path><path d="M392.56 568.89L529.79 568.89L529.79 640L392.56 640L392.56 568.89Z" id="a8iTNCqhVL"></path><path d="M37 568.89L174.23 568.89L174.23 640L37 640L37 568.89Z" id="a5Pdsh2Fcx"></path><path d="M174.23 284.44L245.35 284.44L245.35 568.89L174.23 568.89L174.23 284.44Z" id="b2aF5OX9Y"></path><path d="M387.57 568.89L458.68 568.89L458.68 640L387.57 640L387.57 568.89Z" id="c2zwOtw8nM"></path><path d="M387.57 497.78L458.68 497.78L458.68 607.18L387.57 607.18L387.57 497.78Z" id="eH3ix3X7g"></path><path d="M316.46 426.67L387.57 426.67L387.57 497.78L316.46 497.78L316.46 426.67Z" id="f9tyd8vEKA"></path><path d="M203.84 355.56L316.46 355.56L316.46 426.67L203.84 426.67L203.84 355.56Z" id="bWUhsqq0K"></path></defs><g><g><g><use xlink:href="#a1bFCLH4Vb" opacity="1" fill="#000000" fill-opacity="1"></use></g><g><use xlink:href="#dorHDMz2s" opacity="1" fill="#000000" fill-opacity="1"></use></g><g><use xlink:href="#a7fAK8CKB7" opacity="1" fill="#000000" fill-opacity="1"></use></g><g><use xlink:href="#a1IkysWcE" opacity="1" fill="#000000" fill-opacity="1"></use></g><g><use xlink:href="#b6yG3mRGd" opacity="1" fill="#000000" fill-opacity="1"></use></g><g><use xlink:href="#c2HnEcTeKF" opacity="1" fill="#000000" fill-opacity="1"></use></g><g><use xlink:href="#bec6FvFrC" opacity="1" fill="#000000" fill-opacity="1"></use></g><g><use xlink:href="#bpYH7zhde" opacity="1" fill="#000000" fill-opacity="1"></use></g><g><use xlink:href="#a8iTNCqhVL" opacity="1" fill="#000000" fill-opacity="1"></use></g><g><use xlink:href="#a5Pdsh2Fcx" opacity="1" fill="#000000" fill-opacity="1"></use></g><g><use xlink:href="#b2aF5OX9Y" opacity="1" fill="#000000" fill-opacity="1"></use></g><g><use xlink:href="#c2zwOtw8nM" opacity="1" fill="#000000" fill-opacity="1"></use></g><g><use xlink:href="#eH3ix3X7g" opacity="1" fill="#000000" fill-opacity="1"></use></g><g><use xlink:href="#f9tyd8vEKA" opacity="1" fill="#000000" fill-opacity="1"></use></g><g><use xlink:href="#bWUhsqq0K" opacity="1" fill="#000000" fill-opacity="1"></use></g></g></g></svg>